<mxfile host="Electron" modified="2024-10-19T10:24:51.263Z" agent="Mozilla/5.0 (Macintosh; Intel Mac OS X 10_15_7) AppleWebKit/537.36 (KHTML, like Gecko) draw.io/21.6.5 Chrome/114.0.5735.243 Electron/25.3.1 Safari/537.36" etag="VCk5_hZZHpzLSQMFT-EP" version="21.6.5" type="device">
  <diagram name="Page-1" id="5_oU2BgUVJMQt3fyWjNP">
    <mxGraphModel dx="1210" dy="879" grid="1" gridSize="10" guides="1" tooltips="1" connect="1" arrows="1" fold="1" page="1" pageScale="1" pageWidth="1920" pageHeight="1200" math="0" shadow="0">
      <root>
        <mxCell id="0" />
        <mxCell id="1" parent="0" />
        <mxCell id="LF_B3fCJAD1g6fdAmxXm-12" value="" style="rounded=1;whiteSpace=wrap;html=1;arcSize=4;fillColor=#E6E6E6;" vertex="1" parent="1">
          <mxGeometry x="470" y="110" width="660" height="590" as="geometry" />
        </mxCell>
        <mxCell id="LF_B3fCJAD1g6fdAmxXm-24" value="" style="rounded=1;whiteSpace=wrap;html=1;arcSize=2;" vertex="1" parent="1">
          <mxGeometry x="880" y="265" width="220" height="195" as="geometry" />
        </mxCell>
        <mxCell id="LF_B3fCJAD1g6fdAmxXm-1" value="" style="rounded=1;whiteSpace=wrap;html=1;arcSize=3;" vertex="1" parent="1">
          <mxGeometry x="490" y="130" width="290" height="330" as="geometry" />
        </mxCell>
        <mxCell id="LF_B3fCJAD1g6fdAmxXm-2" value="DB" style="shape=cylinder3;whiteSpace=wrap;html=1;boundedLbl=1;backgroundOutline=1;size=15;strokeWidth=2;" vertex="1" parent="1">
          <mxGeometry x="680" y="180" width="60" height="80" as="geometry" />
        </mxCell>
        <mxCell id="LF_B3fCJAD1g6fdAmxXm-6" style="edgeStyle=orthogonalEdgeStyle;rounded=1;orthogonalLoop=1;jettySize=auto;html=1;exitX=1;exitY=0.5;exitDx=0;exitDy=0;entryX=0;entryY=0.5;entryDx=0;entryDy=0;entryPerimeter=0;strokeWidth=3;" edge="1" parent="1" source="LF_B3fCJAD1g6fdAmxXm-3" target="LF_B3fCJAD1g6fdAmxXm-2">
          <mxGeometry relative="1" as="geometry" />
        </mxCell>
        <mxCell id="LF_B3fCJAD1g6fdAmxXm-3" value="Moodle&lt;br&gt;&lt;font style=&quot;font-size: 17px;&quot;&gt;(Platform)&lt;/font&gt;" style="ellipse;whiteSpace=wrap;html=1;aspect=fixed;fillColor=#d5e8d4;strokeColor=#82b366;fontFamily=Barlow Condensed;fontSource=https%3A%2F%2Ffonts.googleapis.com%2Fcss%3Ffamily%3DBarlow%2BCondensed;fontSize=22;strokeWidth=2;" vertex="1" parent="1">
          <mxGeometry x="540" y="180" width="80" height="80" as="geometry" />
        </mxCell>
        <mxCell id="LF_B3fCJAD1g6fdAmxXm-16" style="edgeStyle=orthogonalEdgeStyle;rounded=1;orthogonalLoop=1;jettySize=auto;html=1;exitX=0;exitY=0.5;exitDx=0;exitDy=0;strokeColor=default;strokeWidth=3;" edge="1" parent="1" source="LF_B3fCJAD1g6fdAmxXm-4" target="LF_B3fCJAD1g6fdAmxXm-3">
          <mxGeometry relative="1" as="geometry" />
        </mxCell>
        <mxCell id="LF_B3fCJAD1g6fdAmxXm-30" value="port 8080" style="edgeLabel;html=1;align=center;verticalAlign=middle;resizable=0;points=[];" vertex="1" connectable="0" parent="LF_B3fCJAD1g6fdAmxXm-16">
          <mxGeometry y="-1" relative="1" as="geometry">
            <mxPoint as="offset" />
          </mxGeometry>
        </mxCell>
        <mxCell id="LF_B3fCJAD1g6fdAmxXm-17" style="orthogonalLoop=1;jettySize=auto;html=1;exitX=1;exitY=0;exitDx=0;exitDy=0;entryX=0.5;entryY=1;entryDx=0;entryDy=0;rounded=1;strokeWidth=3;labelBackgroundColor=none;" edge="1" parent="1" source="LF_B3fCJAD1g6fdAmxXm-8" target="LF_B3fCJAD1g6fdAmxXm-13">
          <mxGeometry relative="1" as="geometry">
            <mxPoint x="935" y="500" as="targetPoint" />
          </mxGeometry>
        </mxCell>
        <mxCell id="LF_B3fCJAD1g6fdAmxXm-27" value="port 3000" style="edgeLabel;html=1;align=center;verticalAlign=middle;resizable=0;points=[];fontSize=15;labelBackgroundColor=none;" vertex="1" connectable="0" parent="LF_B3fCJAD1g6fdAmxXm-17">
          <mxGeometry x="-0.5672" y="-4" relative="1" as="geometry">
            <mxPoint x="14" y="29" as="offset" />
          </mxGeometry>
        </mxCell>
        <mxCell id="LF_B3fCJAD1g6fdAmxXm-29" value="&lt;div style=&quot;font-family: Menlo, Monaco, &amp;quot;Courier New&amp;quot;, monospace; line-height: 18px;&quot;&gt;&lt;font style=&quot;font-size: 12px;&quot;&gt;http://host.docker.internal:3000&lt;/font&gt;&lt;/div&gt;" style="edgeStyle=orthogonalEdgeStyle;rounded=1;orthogonalLoop=1;jettySize=auto;html=1;exitX=1;exitY=0.5;exitDx=0;exitDy=0;fillColor=#dae8fc;strokeColor=#6c8ebf;entryX=0;entryY=0.5;entryDx=0;entryDy=0;strokeWidth=3;fontColor=#05a8ff;labelBackgroundColor=none;" edge="1" parent="1" source="LF_B3fCJAD1g6fdAmxXm-4" target="LF_B3fCJAD1g6fdAmxXm-13">
          <mxGeometry x="0.76" y="100" relative="1" as="geometry">
            <mxPoint as="offset" />
          </mxGeometry>
        </mxCell>
        <mxCell id="LF_B3fCJAD1g6fdAmxXm-4" value="&lt;font style=&quot;font-size: 18px;&quot; data-font-src=&quot;https://fonts.googleapis.com/css?family=Barlow+Condensed&quot; face=&quot;Barlow Condensed&quot;&gt;NGINX&lt;br&gt;(Proxy)&lt;/font&gt;&lt;br&gt;" style="ellipse;whiteSpace=wrap;html=1;aspect=fixed;fillColor=#f5f5f5;fontColor=#333333;strokeColor=#666666;strokeWidth=2;" vertex="1" parent="1">
          <mxGeometry x="610" y="300" width="80" height="80" as="geometry" />
        </mxCell>
        <mxCell id="LF_B3fCJAD1g6fdAmxXm-15" style="rounded=1;orthogonalLoop=1;jettySize=auto;html=1;exitX=0;exitY=0;exitDx=0;exitDy=0;strokeWidth=3;" edge="1" parent="1" source="LF_B3fCJAD1g6fdAmxXm-8" target="LF_B3fCJAD1g6fdAmxXm-4">
          <mxGeometry relative="1" as="geometry" />
        </mxCell>
        <mxCell id="LF_B3fCJAD1g6fdAmxXm-28" value="port 443" style="edgeLabel;html=1;align=center;verticalAlign=middle;resizable=0;points=[];fontSize=15;labelBackgroundColor=none;" vertex="1" connectable="0" parent="LF_B3fCJAD1g6fdAmxXm-15">
          <mxGeometry x="-0.5754" y="-1" relative="1" as="geometry">
            <mxPoint x="-16" y="34" as="offset" />
          </mxGeometry>
        </mxCell>
        <mxCell id="LF_B3fCJAD1g6fdAmxXm-8" value="&lt;font style=&quot;font-size: 16px;&quot;&gt;localhost&lt;/font&gt;" style="rhombus;whiteSpace=wrap;html=1;" vertex="1" parent="1">
          <mxGeometry x="770" y="510" width="90" height="90" as="geometry" />
        </mxCell>
        <mxCell id="LF_B3fCJAD1g6fdAmxXm-13" value="App&lt;br style=&quot;font-size: 22px;&quot;&gt;&lt;font style=&quot;font-size: 17px;&quot;&gt;(TOOL)&lt;/font&gt;" style="ellipse;whiteSpace=wrap;html=1;aspect=fixed;fillColor=#dae8fc;strokeColor=#6c8ebf;fontFamily=Barlow Condensed;fontSource=https%3A%2F%2Ffonts.googleapis.com%2Fcss%3Ffamily%3DBarlow%2BCondensed;fontSize=22;strokeWidth=2;" vertex="1" parent="1">
          <mxGeometry x="940" y="295" width="90" height="90" as="geometry" />
        </mxCell>
        <mxCell id="LF_B3fCJAD1g6fdAmxXm-18" value="SSL&lt;br&gt;CERTS" style="shape=document;whiteSpace=wrap;html=1;boundedLbl=1;strokeWidth=2;" vertex="1" parent="1">
          <mxGeometry x="520" y="360" width="50" height="50" as="geometry" />
        </mxCell>
        <mxCell id="LF_B3fCJAD1g6fdAmxXm-22" style="edgeStyle=orthogonalEdgeStyle;rounded=1;orthogonalLoop=1;jettySize=auto;html=1;strokeWidth=3;" edge="1" parent="1" source="LF_B3fCJAD1g6fdAmxXm-21" target="LF_B3fCJAD1g6fdAmxXm-8">
          <mxGeometry relative="1" as="geometry" />
        </mxCell>
        <mxCell id="LF_B3fCJAD1g6fdAmxXm-36" style="edgeStyle=orthogonalEdgeStyle;rounded=0;orthogonalLoop=1;jettySize=auto;html=1;exitX=0.75;exitY=0;exitDx=0;exitDy=0;entryX=0.25;entryY=1;entryDx=0;entryDy=0;endArrow=none;endFill=0;dashed=1;dashPattern=1 4;" edge="1" parent="1" source="LF_B3fCJAD1g6fdAmxXm-21" target="LF_B3fCJAD1g6fdAmxXm-35">
          <mxGeometry relative="1" as="geometry" />
        </mxCell>
        <mxCell id="LF_B3fCJAD1g6fdAmxXm-21" value="HOSTS&lt;br&gt;FILE" style="shape=document;whiteSpace=wrap;html=1;boundedLbl=1;strokeWidth=2;" vertex="1" parent="1">
          <mxGeometry x="520" y="630" width="60" height="50" as="geometry" />
        </mxCell>
        <mxCell id="LF_B3fCJAD1g6fdAmxXm-25" value="&lt;font style=&quot;font-size: 21px;&quot;&gt;docker-compose&lt;/font&gt;" style="text;html=1;strokeColor=none;fillColor=none;align=center;verticalAlign=middle;whiteSpace=wrap;rounded=0;fontFamily=Barlow Condensed;fontSource=https%3A%2F%2Ffonts.googleapis.com%2Fcss%3Ffamily%3DBarlow%2BCondensed;" vertex="1" parent="1">
          <mxGeometry x="480" y="430" width="150" height="30" as="geometry" />
        </mxCell>
        <mxCell id="LF_B3fCJAD1g6fdAmxXm-31" value="&lt;font style=&quot;font-size: 21px;&quot;&gt;python&lt;/font&gt;" style="text;html=1;strokeColor=none;fillColor=none;align=center;verticalAlign=middle;whiteSpace=wrap;rounded=0;fontFamily=Barlow Condensed;fontSource=https%3A%2F%2Ffonts.googleapis.com%2Fcss%3Ffamily%3DBarlow%2BCondensed;" vertex="1" parent="1">
          <mxGeometry x="980" y="430" width="60" height="30" as="geometry" />
        </mxCell>
        <mxCell id="LF_B3fCJAD1g6fdAmxXm-32" value="&lt;span style=&quot;font-size: 21px;&quot;&gt;Developer PC&lt;/span&gt;" style="text;html=1;strokeColor=none;fillColor=none;align=center;verticalAlign=middle;whiteSpace=wrap;rounded=0;fontFamily=Barlow Condensed;fontSource=https%3A%2F%2Ffonts.googleapis.com%2Fcss%3Ffamily%3DBarlow%2BCondensed;" vertex="1" parent="1">
          <mxGeometry x="1000" y="660" width="100" height="30" as="geometry" />
        </mxCell>
        <mxCell id="LF_B3fCJAD1g6fdAmxXm-33" value="" style="endArrow=none;dashed=1;html=1;dashPattern=1 3;strokeWidth=2;rounded=0;entryX=0.545;entryY=0.237;entryDx=0;entryDy=0;entryPerimeter=0;fontColor=#05a8ff;strokeColor=#05a8ff;" edge="1" parent="1" target="LF_B3fCJAD1g6fdAmxXm-12">
          <mxGeometry width="50" height="50" relative="1" as="geometry">
            <mxPoint x="830" y="340" as="sourcePoint" />
            <mxPoint x="880" y="290" as="targetPoint" />
          </mxGeometry>
        </mxCell>
        <mxCell id="LF_B3fCJAD1g6fdAmxXm-35" value="" style="shape=parallelogram;perimeter=parallelogramPerimeter;whiteSpace=wrap;html=1;fixedSize=1;strokeColor=#B3B3B3;" vertex="1" parent="1">
          <mxGeometry x="500" y="556" width="240" height="60" as="geometry" />
        </mxCell>
        <mxCell id="LF_B3fCJAD1g6fdAmxXm-19" value="https://platform.ltitraining.net" style="text;html=1;strokeColor=none;fillColor=none;align=center;verticalAlign=middle;whiteSpace=wrap;rounded=0;fontSize=16;fontColor=#81b365;" vertex="1" parent="1">
          <mxGeometry x="595" y="557" width="60" height="30" as="geometry" />
        </mxCell>
        <mxCell id="LF_B3fCJAD1g6fdAmxXm-20" value="&lt;font style=&quot;font-size: 16px;&quot;&gt;https://tool.ltitraining.net&lt;/font&gt;" style="text;html=1;strokeColor=none;fillColor=none;align=center;verticalAlign=middle;whiteSpace=wrap;rounded=0;fontColor=#6c8ebf;" vertex="1" parent="1">
          <mxGeometry x="579" y="580" width="60" height="30" as="geometry" />
        </mxCell>
      </root>
    </mxGraphModel>
  </diagram>
</mxfile>
